<svg height="40" viewBox="0 0 44 43" width="40" xmlns="http://www.w3.org/2000/svg" xmlns:xlink="http://www.w3.org/1999/xlink"><linearGradient id="a" x1="0%" x2="69.11%" y1="-3.733%" y2="63.601%"><stop offset="0" stop-color="#0f9def"/><stop offset="1" stop-color="#02c198"/></linearGradient><g fill="none" transform=""><path d="m15.2117006 40.3108955-12.503853-12.4593035c-1.68758408-1.6799165-2.63616427-3.961968-2.63616427-6.3419651 0-2.3799972.94858019-4.6620487 2.63616427-6.3419652l12.503853-12.45930349c3.5186961-3.50335834 9.2110786-3.50335834 12.7297747 0l12.5049237 12.45930349c1.6875841 1.6799165 2.6361643 3.961968 2.6361643 6.3419652 0 2.3799971-.9485802 4.6620486-2.6361643 6.3419651l-12.5006408 12.4593035c-3.519191 3.5062021-9.2148665 3.5062021-12.7340576 0z" fill="url(#a)"/><path d="m21.5375067 32.8383085c-.2187179.0011573-.4341805-.0529306-.6263704-.1572388l-.0567481-.024602c-8.8345-3.9074378-9.2949091-15.7388558-9.3152527-16.2415921l-.0385459-1.2782338 1.2677309-.1711443c1.2056293-.1625871 2.5493813-1.0696517 3.8492338-1.9467662 1.6681797-1.1263432 3.3866832-2.291194 5.3086233-2.2804975 1.8362826.0085572 3.4262999 1.1766169 4.9563569 2.3083085 1.1777906.8717662 2.4026928 1.7713433 3.4937551 1.9189552l1.267731.1711443-.0385459 1.2782338c-.0800545 1.4627103-.2925682 2.9151702-.6349362 4.3395771l-2.7613835-.645c.2060702-.8817949.3615774-1.7746241.4657626-2.6741293-1.2730845-.4813433-2.4262486-1.3317164-3.4755529-2.104005-1.1670834-.8557214-2.3737834-1.7510199-3.2828235-1.7552985h-.0085658c-1.0364557 0-2.3887734.9124129-3.696121 1.7948756-1.1863563.8000995-2.401622 1.6215921-3.7293132 2.0836816.3212156 2.6848259 1.625351 9.4439552 6.8012052 12.2528607l.2805283.1636567.2708918-.144403c1.7452715-.9359452 3.2121561-2.4024378 4.3535423-4.3663184l-2.4187536-.0599005.0717382-2.8367164 6.7808615.1722139-.8812015 1.9489055c-.0256972.0566916-.6338654 1.3991045-1.0375264 2.1018657-1.606078 2.791791-3.752869 4.7995274-6.3943321 5.9675871l-.0599602.0256716c-.1874909.1034721-.3982536.1575827-.6124511.1572388z" fill="#fff"/></g></svg>