<svg height="40" viewBox="0 0 124 40" width="124" xmlns="http://www.w3.org/2000/svg" xmlns:xlink="http://www.w3.org/1999/xlink"><linearGradient id="a" x1="0%" x2="69.1105%" y1="-3.733305%" y2="63.600826%"><stop offset="0" stop-color="#0f9def"/><stop offset="1" stop-color="#02c198"/></linearGradient><g fill="none" fill-rule="evenodd"><path d="m14.0801744 37.5458054-11.62854888-11.6279874c-1.56944855-1.5678282-2.45162552-3.6976155-2.45162552-5.9188132 0-2.2211978.88217697-4.3509851 2.45162552-5.9188133l11.62854888-11.62798741c3.2723777-3.26960545 8.5662777-3.26960545 11.8386554 0l11.6295447 11.62798741c1.5694485 1.5678282 2.4516255 3.6976155 2.4516255 5.9188133 0 2.2211977-.882177 4.350985-2.4516255 5.9188132l-11.6255616 11.6279874c-3.2728379 3.2722595-8.5698005 3.2722595-11.8426385 0z" fill="url(#a)" fill-rule="nonzero"/><path d="m19.6581778 28.142843c-.1668819.0008977-.3312801-.0410577-.4779212-.1219684l-.0432989-.0190835c-6.7407323-3.0309568-7.092025-12.2084584-7.1075471-12.5984254l-.0294106-.991512.96728-.1327548c.9198963-.126117 1.9451805-.8297171 2.9369692-1.5100852 1.2728228-.8736921 2.5840427-1.7772541 4.0504849-1.768957 1.4010855.0066377 2.6142703.9126889 3.7817053 1.7905297.8986555.6762195 1.8332571 1.3740116 2.6657387 1.4885125l.96728.1327548-.0294105.991512c-.0610817 1.1346084-.2232299 2.2612656-.484457 3.3661625l-2.1069384-.5003194c.1572318-.6839987.2758839-1.3765566.3553774-2.0742929-.9713648-.3733727-1.8512302-1.0329979-2.6518504-1.6320537-.8904858-.6637737-1.8111991-1.358247-2.5047976-1.3615658h-.0065358c-.7908167 0-1.8226365.7077487-2.820144 1.3922653-.9051911.6206285-1.83244 1.2578513-2.8454697 1.6162891.2450878 2.0825901 1.2401444 7.3255728 5.1893264 9.5044101l.2140434.1269467.2066907-.1120119c1.3316439-.7260024 2.4508783-1.8635447 3.3217571-3.3869054l-1.8455114-.0464642.0547363-2.2004099 5.1738042.1335845-.6723577 1.5117447c-.019607.043975-.4836399 1.08527-.7916336 1.6303942-1.2254392 2.1655618-2.8634429 3.7229409-4.8788819 4.6289921l-.0457497.0199132c-.1430557.0802621-.3038679.1222351-.4673008.1219684z" fill="#fff"/><path d="m56.04 26.48c-3.96 0-7.04-3.16-7.04-7.06 0-3.92 3.08-7.08 7.04-7.08 2.08 0 3.9.86 5.1 2.2l-2.02 1.74c-.78-.84-1.88-1.36-3.08-1.36-2.4 0-4.26 2.04-4.26 4.5s1.86 4.58 4.26 4.58c1.8 0 3.22-.86 3.58-2.3.04-.1.06-.22.08-.34h-3.9v-2.26h6.94c0 5.1-2.74 7.38-6.7 7.38zm14.92-9.5h2.62v9.32h-2.62v-1.52c-.4 1.22-1.88 1.74-2.8 1.74-2.44 0-3.72-1.62-3.7-4.42v-5.12h2.62v4.84c0 1.46.88 2.12 1.78 2.12.94 0 2.1-.5 2.1-2.18zm12.28 0h2.62v9.32h-2.62v-1.16c-.66.92-1.96 1.34-3 1.34-2.4 0-4.58-1.86-4.58-4.86s2.18-4.86 4.58-4.86c1.08 0 2.34.4 3 1.34zm-2.5 7.06c1.28 0 2.42-1 2.42-2.42 0-1.44-1.2-2.4-2.42-2.4-1.32 0-2.42 1.02-2.42 2.4 0 1.36 1.1 2.42 2.42 2.42zm13.1-7.3c.5 0 1.06.08 1.48.3l-.6 2.5c-.56-.3-1.02-.34-1.34-.34-1.34 0-2.26 1.24-2.26 3.9v3.2h-2.62v-9.32h2.6v1.98c.52-1.56 1.58-2.22 2.74-2.22zm9.68-4.74h2.62v14.3h-2.62v-1.16c-.66.92-1.96 1.34-3 1.34-2.4 0-4.58-1.86-4.58-4.86s2.18-4.86 4.58-4.86c1.08 0 2.34.4 3 1.34zm-2.5 12.04c1.28 0 2.42-1 2.42-2.42 0-1.44-1.2-2.4-2.42-2.4-1.32 0-2.42 1.02-2.42 2.4 0 1.36 1.1 2.42 2.42 2.42zm9.06-8.72c-.9 0-1.66-.7-1.66-1.58s.76-1.56 1.66-1.56c.92 0 1.66.68 1.66 1.56s-.74 1.58-1.66 1.58zm-1.3 10.98v-9.32h2.62v9.32zm9.7.18c-2.66 0-5.02-1.92-5.02-4.86 0-2.96 2.36-4.88 5.02-4.88s5.02 1.92 5.02 4.88c0 2.94-2.36 4.86-5.02 4.86zm0-2.44c1.3 0 2.36-.98 2.36-2.42 0-1.46-1.06-2.44-2.36-2.44s-2.36.98-2.36 2.44c0 1.44 1.06 2.42 2.36 2.42z" fill="#000" fill-opacity=".87" fill-rule="nonzero"/></g></svg>